<mxfile host="app.diagrams.net" agent="Mozilla/5.0 (Windows NT 10.0; Win64; x64) AppleWebKit/537.36 (KHTML, like Gecko) Chrome/137.0.0.0 Safari/537.36" version="27.1.6">
  <diagram name="PÃ¡gina-1" id="HUcSJwOZNN6Hi8zDWi8z">
    <mxGraphModel dx="1665" dy="777" grid="1" gridSize="10" guides="1" tooltips="1" connect="1" arrows="1" fold="1" page="1" pageScale="1" pageWidth="827" pageHeight="1169" math="0" shadow="0">
      <root>
        <mxCell id="0" />
        <mxCell id="1" parent="0" />
        <mxCell id="j-ZyikdbyAII7zTlh9Dx-94" value="" style="endArrow=none;html=1;rounded=0;" parent="1" source="j-ZyikdbyAII7zTlh9Dx-182" target="j-ZyikdbyAII7zTlh9Dx-107" edge="1">
          <mxGeometry width="50" height="50" relative="1" as="geometry">
            <mxPoint x="131" y="57" as="sourcePoint" />
            <mxPoint x="491" y="57" as="targetPoint" />
          </mxGeometry>
        </mxCell>
        <mxCell id="j-ZyikdbyAII7zTlh9Dx-95" value="" style="endArrow=none;html=1;rounded=0;" parent="1" source="j-ZyikdbyAII7zTlh9Dx-184" target="j-ZyikdbyAII7zTlh9Dx-106" edge="1">
          <mxGeometry width="50" height="50" relative="1" as="geometry">
            <mxPoint x="131" y="97" as="sourcePoint" />
            <mxPoint x="491" y="97" as="targetPoint" />
          </mxGeometry>
        </mxCell>
        <mxCell id="j-ZyikdbyAII7zTlh9Dx-96" value="" style="endArrow=none;html=1;rounded=0;" parent="1" source="j-ZyikdbyAII7zTlh9Dx-167" target="j-ZyikdbyAII7zTlh9Dx-105" edge="1">
          <mxGeometry width="50" height="50" relative="1" as="geometry">
            <mxPoint x="131" y="137" as="sourcePoint" />
            <mxPoint x="491" y="137" as="targetPoint" />
          </mxGeometry>
        </mxCell>
        <mxCell id="j-ZyikdbyAII7zTlh9Dx-97" value="" style="endArrow=none;html=1;rounded=0;" parent="1" source="j-ZyikdbyAII7zTlh9Dx-187" target="j-ZyikdbyAII7zTlh9Dx-104" edge="1">
          <mxGeometry width="50" height="50" relative="1" as="geometry">
            <mxPoint x="131" y="177" as="sourcePoint" />
            <mxPoint x="491" y="177" as="targetPoint" />
          </mxGeometry>
        </mxCell>
        <mxCell id="j-ZyikdbyAII7zTlh9Dx-98" value="" style="endArrow=none;html=1;rounded=0;" parent="1" source="j-ZyikdbyAII7zTlh9Dx-189" target="j-ZyikdbyAII7zTlh9Dx-103" edge="1">
          <mxGeometry width="50" height="50" relative="1" as="geometry">
            <mxPoint x="131" y="217" as="sourcePoint" />
            <mxPoint x="491" y="217" as="targetPoint" />
          </mxGeometry>
        </mxCell>
        <mxCell id="j-ZyikdbyAII7zTlh9Dx-99" value="" style="endArrow=none;html=1;rounded=0;" parent="1" source="j-ZyikdbyAII7zTlh9Dx-191" target="j-ZyikdbyAII7zTlh9Dx-102" edge="1">
          <mxGeometry width="50" height="50" relative="1" as="geometry">
            <mxPoint x="131" y="257" as="sourcePoint" />
            <mxPoint x="491" y="257" as="targetPoint" />
          </mxGeometry>
        </mxCell>
        <mxCell id="j-ZyikdbyAII7zTlh9Dx-100" value="" style="endArrow=none;html=1;rounded=0;" parent="1" source="j-ZyikdbyAII7zTlh9Dx-193" target="j-ZyikdbyAII7zTlh9Dx-101" edge="1">
          <mxGeometry width="50" height="50" relative="1" as="geometry">
            <mxPoint x="131" y="297" as="sourcePoint" />
            <mxPoint x="491" y="297" as="targetPoint" />
          </mxGeometry>
        </mxCell>
        <mxCell id="j-ZyikdbyAII7zTlh9Dx-101" value="M10" style="rounded=0;whiteSpace=wrap;html=1;" parent="1" vertex="1">
          <mxGeometry x="506" y="287" width="30" height="20" as="geometry" />
        </mxCell>
        <mxCell id="j-ZyikdbyAII7zTlh9Dx-102" value="M9" style="rounded=0;whiteSpace=wrap;html=1;" parent="1" vertex="1">
          <mxGeometry x="506" y="247" width="30" height="20" as="geometry" />
        </mxCell>
        <mxCell id="j-ZyikdbyAII7zTlh9Dx-103" value="M8" style="rounded=0;whiteSpace=wrap;html=1;" parent="1" vertex="1">
          <mxGeometry x="506" y="207" width="30" height="20" as="geometry" />
        </mxCell>
        <mxCell id="j-ZyikdbyAII7zTlh9Dx-104" value="M7" style="rounded=0;whiteSpace=wrap;html=1;" parent="1" vertex="1">
          <mxGeometry x="506" y="167" width="30" height="20" as="geometry" />
        </mxCell>
        <mxCell id="j-ZyikdbyAII7zTlh9Dx-105" value="M6" style="rounded=0;whiteSpace=wrap;html=1;" parent="1" vertex="1">
          <mxGeometry x="506" y="127" width="30" height="20" as="geometry" />
        </mxCell>
        <mxCell id="j-ZyikdbyAII7zTlh9Dx-106" value="M5" style="rounded=0;whiteSpace=wrap;html=1;" parent="1" vertex="1">
          <mxGeometry x="506" y="87" width="30" height="20" as="geometry" />
        </mxCell>
        <mxCell id="j-ZyikdbyAII7zTlh9Dx-107" value="M4" style="rounded=0;whiteSpace=wrap;html=1;" parent="1" vertex="1">
          <mxGeometry x="506" y="47" width="30" height="20" as="geometry" />
        </mxCell>
        <mxCell id="j-ZyikdbyAII7zTlh9Dx-108" value="" style="endArrow=none;html=1;rounded=0;fillColor=#f8cecc;strokeColor=#b85450;" parent="1" source="j-ZyikdbyAII7zTlh9Dx-202" target="j-ZyikdbyAII7zTlh9Dx-109" edge="1">
          <mxGeometry width="50" height="50" relative="1" as="geometry">
            <mxPoint x="131" y="337" as="sourcePoint" />
            <mxPoint x="491" y="337" as="targetPoint" />
          </mxGeometry>
        </mxCell>
        <mxCell id="j-ZyikdbyAII7zTlh9Dx-109" value="M1" style="rounded=0;whiteSpace=wrap;html=1;fillColor=#FFFFFF;strokeColor=#b85450;" parent="1" vertex="1">
          <mxGeometry x="506" y="327" width="30" height="20" as="geometry" />
        </mxCell>
        <mxCell id="j-ZyikdbyAII7zTlh9Dx-110" value="" style="endArrow=none;html=1;rounded=0;fillColor=#f8cecc;strokeColor=#b85450;" parent="1" source="j-ZyikdbyAII7zTlh9Dx-204" target="j-ZyikdbyAII7zTlh9Dx-111" edge="1">
          <mxGeometry width="50" height="50" relative="1" as="geometry">
            <mxPoint x="131" y="377" as="sourcePoint" />
            <mxPoint x="491" y="377" as="targetPoint" />
          </mxGeometry>
        </mxCell>
        <mxCell id="j-ZyikdbyAII7zTlh9Dx-111" value="M2" style="rounded=0;whiteSpace=wrap;html=1;fillColor=#FFFFFF;strokeColor=#b85450;" parent="1" vertex="1">
          <mxGeometry x="506" y="367" width="30" height="20" as="geometry" />
        </mxCell>
        <mxCell id="j-ZyikdbyAII7zTlh9Dx-112" value="" style="endArrow=none;html=1;rounded=0;fillColor=#f8cecc;strokeColor=#b85450;" parent="1" source="j-ZyikdbyAII7zTlh9Dx-206" target="j-ZyikdbyAII7zTlh9Dx-113" edge="1">
          <mxGeometry width="50" height="50" relative="1" as="geometry">
            <mxPoint x="131" y="417" as="sourcePoint" />
            <mxPoint x="491" y="417" as="targetPoint" />
          </mxGeometry>
        </mxCell>
        <mxCell id="j-ZyikdbyAII7zTlh9Dx-113" value="M3" style="rounded=0;whiteSpace=wrap;html=1;fillColor=#FFFFFF;strokeColor=#b85450;" parent="1" vertex="1">
          <mxGeometry x="506" y="407" width="30" height="20" as="geometry" />
        </mxCell>
        <mxCell id="j-ZyikdbyAII7zTlh9Dx-114" value="" style="endArrow=none;html=1;rounded=0;fillColor=#f8cecc;strokeColor=#b85450;" parent="1" source="j-ZyikdbyAII7zTlh9Dx-137" target="j-ZyikdbyAII7zTlh9Dx-115" edge="1">
          <mxGeometry width="50" height="50" relative="1" as="geometry">
            <mxPoint x="131" y="337" as="sourcePoint" />
            <mxPoint x="491" y="337" as="targetPoint" />
          </mxGeometry>
        </mxCell>
        <mxCell id="j-ZyikdbyAII7zTlh9Dx-115" value="" style="shape=orEllipse;perimeter=ellipsePerimeter;whiteSpace=wrap;html=1;backgroundOutline=1;" parent="1" vertex="1">
          <mxGeometry x="171" y="332" width="10" height="10" as="geometry" />
        </mxCell>
        <mxCell id="j-ZyikdbyAII7zTlh9Dx-116" value="" style="endArrow=none;html=1;rounded=0;fillColor=#f8cecc;strokeColor=#b85450;" parent="1" source="j-ZyikdbyAII7zTlh9Dx-115" target="j-ZyikdbyAII7zTlh9Dx-117" edge="1">
          <mxGeometry width="50" height="50" relative="1" as="geometry">
            <mxPoint x="181" y="337" as="sourcePoint" />
            <mxPoint x="491" y="337" as="targetPoint" />
          </mxGeometry>
        </mxCell>
        <mxCell id="j-ZyikdbyAII7zTlh9Dx-117" value="" style="shape=orEllipse;perimeter=ellipsePerimeter;whiteSpace=wrap;html=1;backgroundOutline=1;" parent="1" vertex="1">
          <mxGeometry x="191" y="332" width="10" height="10" as="geometry" />
        </mxCell>
        <mxCell id="j-ZyikdbyAII7zTlh9Dx-118" value="" style="endArrow=none;html=1;rounded=0;fillColor=#f8cecc;strokeColor=#b85450;" parent="1" source="j-ZyikdbyAII7zTlh9Dx-117" target="j-ZyikdbyAII7zTlh9Dx-119" edge="1">
          <mxGeometry width="50" height="50" relative="1" as="geometry">
            <mxPoint x="201" y="337" as="sourcePoint" />
            <mxPoint x="491" y="337" as="targetPoint" />
          </mxGeometry>
        </mxCell>
        <mxCell id="j-ZyikdbyAII7zTlh9Dx-119" value="" style="shape=orEllipse;perimeter=ellipsePerimeter;whiteSpace=wrap;html=1;backgroundOutline=1;" parent="1" vertex="1">
          <mxGeometry x="211" y="332" width="10" height="10" as="geometry" />
        </mxCell>
        <mxCell id="j-ZyikdbyAII7zTlh9Dx-120" value="" style="endArrow=none;html=1;rounded=0;fillColor=#f8cecc;strokeColor=#b85450;" parent="1" target="j-ZyikdbyAII7zTlh9Dx-121" edge="1">
          <mxGeometry width="50" height="50" relative="1" as="geometry">
            <mxPoint x="86" y="377" as="sourcePoint" />
            <mxPoint x="446" y="377" as="targetPoint" />
          </mxGeometry>
        </mxCell>
        <mxCell id="j-ZyikdbyAII7zTlh9Dx-121" value="" style="shape=orEllipse;perimeter=ellipsePerimeter;whiteSpace=wrap;html=1;backgroundOutline=1;" parent="1" vertex="1">
          <mxGeometry x="251" y="372" width="10" height="10" as="geometry" />
        </mxCell>
        <mxCell id="j-ZyikdbyAII7zTlh9Dx-122" value="" style="endArrow=none;html=1;rounded=0;fillColor=#f8cecc;strokeColor=#b85450;" parent="1" source="j-ZyikdbyAII7zTlh9Dx-121" target="j-ZyikdbyAII7zTlh9Dx-123" edge="1">
          <mxGeometry width="50" height="50" relative="1" as="geometry">
            <mxPoint x="261" y="377" as="sourcePoint" />
            <mxPoint x="491" y="377" as="targetPoint" />
          </mxGeometry>
        </mxCell>
        <mxCell id="j-ZyikdbyAII7zTlh9Dx-123" value="" style="shape=orEllipse;perimeter=ellipsePerimeter;whiteSpace=wrap;html=1;backgroundOutline=1;" parent="1" vertex="1">
          <mxGeometry x="271" y="372" width="10" height="10" as="geometry" />
        </mxCell>
        <mxCell id="j-ZyikdbyAII7zTlh9Dx-124" value="" style="endArrow=none;html=1;rounded=0;fillColor=#f8cecc;strokeColor=#b85450;" parent="1" source="j-ZyikdbyAII7zTlh9Dx-123" target="j-ZyikdbyAII7zTlh9Dx-125" edge="1">
          <mxGeometry width="50" height="50" relative="1" as="geometry">
            <mxPoint x="281" y="377" as="sourcePoint" />
            <mxPoint x="491" y="377" as="targetPoint" />
          </mxGeometry>
        </mxCell>
        <mxCell id="j-ZyikdbyAII7zTlh9Dx-125" value="" style="shape=orEllipse;perimeter=ellipsePerimeter;whiteSpace=wrap;html=1;backgroundOutline=1;" parent="1" vertex="1">
          <mxGeometry x="291" y="372" width="10" height="10" as="geometry" />
        </mxCell>
        <mxCell id="j-ZyikdbyAII7zTlh9Dx-126" value="" style="endArrow=none;html=1;rounded=0;fillColor=#f8cecc;strokeColor=#b85450;" parent="1" source="j-ZyikdbyAII7zTlh9Dx-125" target="j-ZyikdbyAII7zTlh9Dx-127" edge="1">
          <mxGeometry width="50" height="50" relative="1" as="geometry">
            <mxPoint x="301" y="377" as="sourcePoint" />
            <mxPoint x="491" y="377" as="targetPoint" />
          </mxGeometry>
        </mxCell>
        <mxCell id="j-ZyikdbyAII7zTlh9Dx-127" value="" style="shape=orEllipse;perimeter=ellipsePerimeter;whiteSpace=wrap;html=1;backgroundOutline=1;" parent="1" vertex="1">
          <mxGeometry x="311" y="372" width="10" height="10" as="geometry" />
        </mxCell>
        <mxCell id="j-ZyikdbyAII7zTlh9Dx-128" value="" style="endArrow=none;html=1;rounded=0;fillColor=#f8cecc;strokeColor=#b85450;" parent="1" source="j-ZyikdbyAII7zTlh9Dx-135" target="j-ZyikdbyAII7zTlh9Dx-129" edge="1">
          <mxGeometry width="50" height="50" relative="1" as="geometry">
            <mxPoint x="131" y="417" as="sourcePoint" />
            <mxPoint x="491" y="417" as="targetPoint" />
          </mxGeometry>
        </mxCell>
        <mxCell id="j-ZyikdbyAII7zTlh9Dx-129" value="" style="shape=orEllipse;perimeter=ellipsePerimeter;whiteSpace=wrap;html=1;backgroundOutline=1;" parent="1" vertex="1">
          <mxGeometry x="371" y="412" width="10" height="10" as="geometry" />
        </mxCell>
        <mxCell id="j-ZyikdbyAII7zTlh9Dx-130" value="" style="endArrow=none;html=1;rounded=0;fillColor=#f8cecc;strokeColor=#b85450;" parent="1" source="j-ZyikdbyAII7zTlh9Dx-129" target="j-ZyikdbyAII7zTlh9Dx-131" edge="1">
          <mxGeometry width="50" height="50" relative="1" as="geometry">
            <mxPoint x="381" y="417" as="sourcePoint" />
            <mxPoint x="491" y="417" as="targetPoint" />
          </mxGeometry>
        </mxCell>
        <mxCell id="j-ZyikdbyAII7zTlh9Dx-131" value="" style="shape=orEllipse;perimeter=ellipsePerimeter;whiteSpace=wrap;html=1;backgroundOutline=1;" parent="1" vertex="1">
          <mxGeometry x="391" y="412" width="10" height="10" as="geometry" />
        </mxCell>
        <mxCell id="j-ZyikdbyAII7zTlh9Dx-132" value="" style="endArrow=none;html=1;rounded=0;fillColor=#f8cecc;strokeColor=#b85450;" parent="1" source="j-ZyikdbyAII7zTlh9Dx-131" target="j-ZyikdbyAII7zTlh9Dx-133" edge="1">
          <mxGeometry width="50" height="50" relative="1" as="geometry">
            <mxPoint x="401" y="417" as="sourcePoint" />
            <mxPoint x="491" y="417" as="targetPoint" />
          </mxGeometry>
        </mxCell>
        <mxCell id="j-ZyikdbyAII7zTlh9Dx-133" value="" style="shape=orEllipse;perimeter=ellipsePerimeter;whiteSpace=wrap;html=1;backgroundOutline=1;" parent="1" vertex="1">
          <mxGeometry x="411" y="412" width="10" height="10" as="geometry" />
        </mxCell>
        <mxCell id="j-ZyikdbyAII7zTlh9Dx-134" value="" style="endArrow=none;html=1;rounded=0;fillColor=#f8cecc;strokeColor=#b85450;" parent="1" target="j-ZyikdbyAII7zTlh9Dx-135" edge="1">
          <mxGeometry width="50" height="50" relative="1" as="geometry">
            <mxPoint x="86" y="417" as="sourcePoint" />
            <mxPoint x="326" y="417" as="targetPoint" />
          </mxGeometry>
        </mxCell>
        <mxCell id="j-ZyikdbyAII7zTlh9Dx-135" value="" style="shape=orEllipse;perimeter=ellipsePerimeter;whiteSpace=wrap;html=1;backgroundOutline=1;" parent="1" vertex="1">
          <mxGeometry x="351" y="412" width="10" height="10" as="geometry" />
        </mxCell>
        <mxCell id="j-ZyikdbyAII7zTlh9Dx-136" value="" style="endArrow=none;html=1;rounded=0;fillColor=#f8cecc;strokeColor=#b85450;" parent="1" target="j-ZyikdbyAII7zTlh9Dx-137" edge="1">
          <mxGeometry width="50" height="50" relative="1" as="geometry">
            <mxPoint x="86" y="337" as="sourcePoint" />
            <mxPoint x="126" y="337" as="targetPoint" />
          </mxGeometry>
        </mxCell>
        <mxCell id="j-ZyikdbyAII7zTlh9Dx-137" value="" style="shape=orEllipse;perimeter=ellipsePerimeter;whiteSpace=wrap;html=1;backgroundOutline=1;" parent="1" vertex="1">
          <mxGeometry x="151" y="332" width="10" height="10" as="geometry" />
        </mxCell>
        <mxCell id="j-ZyikdbyAII7zTlh9Dx-138" value="" style="endArrow=none;html=1;rounded=0;" parent="1" target="j-ZyikdbyAII7zTlh9Dx-140" edge="1">
          <mxGeometry width="50" height="50" relative="1" as="geometry">
            <mxPoint x="86" y="177" as="sourcePoint" />
            <mxPoint x="446" y="177" as="targetPoint" />
          </mxGeometry>
        </mxCell>
        <mxCell id="j-ZyikdbyAII7zTlh9Dx-139" style="edgeStyle=none;curved=1;rounded=0;orthogonalLoop=1;jettySize=auto;html=1;entryX=0.5;entryY=0;entryDx=0;entryDy=0;fontSize=12;startSize=8;endSize=8;endArrow=none;startFill=0;" parent="1" source="j-ZyikdbyAII7zTlh9Dx-140" target="j-ZyikdbyAII7zTlh9Dx-137" edge="1">
          <mxGeometry relative="1" as="geometry" />
        </mxCell>
        <mxCell id="j-ZyikdbyAII7zTlh9Dx-140" value="" style="shape=waypoint;sketch=0;fillStyle=solid;size=6;pointerEvents=1;points=[];fillColor=none;resizable=0;rotatable=0;perimeter=centerPerimeter;snapToPoint=1;" parent="1" vertex="1">
          <mxGeometry x="146" y="167" width="20" height="20" as="geometry" />
        </mxCell>
        <mxCell id="j-ZyikdbyAII7zTlh9Dx-141" value="" style="endArrow=none;html=1;rounded=0;" parent="1" target="j-ZyikdbyAII7zTlh9Dx-143" edge="1">
          <mxGeometry width="50" height="50" relative="1" as="geometry">
            <mxPoint x="86" y="217" as="sourcePoint" />
            <mxPoint x="446" y="217" as="targetPoint" />
          </mxGeometry>
        </mxCell>
        <mxCell id="j-ZyikdbyAII7zTlh9Dx-142" style="edgeStyle=none;curved=1;rounded=0;orthogonalLoop=1;jettySize=auto;html=1;entryX=0.5;entryY=0;entryDx=0;entryDy=0;fontSize=12;startSize=8;endSize=8;endArrow=none;startFill=0;" parent="1" source="j-ZyikdbyAII7zTlh9Dx-143" target="j-ZyikdbyAII7zTlh9Dx-115" edge="1">
          <mxGeometry relative="1" as="geometry" />
        </mxCell>
        <mxCell id="j-ZyikdbyAII7zTlh9Dx-143" value="" style="shape=waypoint;sketch=0;fillStyle=solid;size=6;pointerEvents=1;points=[];fillColor=none;resizable=0;rotatable=0;perimeter=centerPerimeter;snapToPoint=1;" parent="1" vertex="1">
          <mxGeometry x="166" y="207" width="20" height="20" as="geometry" />
        </mxCell>
        <mxCell id="j-ZyikdbyAII7zTlh9Dx-144" value="" style="endArrow=none;html=1;rounded=0;" parent="1" target="j-ZyikdbyAII7zTlh9Dx-146" edge="1">
          <mxGeometry width="50" height="50" relative="1" as="geometry">
            <mxPoint x="86" y="257" as="sourcePoint" />
            <mxPoint x="446" y="257" as="targetPoint" />
          </mxGeometry>
        </mxCell>
        <mxCell id="j-ZyikdbyAII7zTlh9Dx-145" style="edgeStyle=none;curved=1;rounded=0;orthogonalLoop=1;jettySize=auto;html=1;entryX=0.5;entryY=0;entryDx=0;entryDy=0;fontSize=12;startSize=8;endSize=8;endArrow=none;startFill=0;" parent="1" source="j-ZyikdbyAII7zTlh9Dx-146" target="j-ZyikdbyAII7zTlh9Dx-117" edge="1">
          <mxGeometry relative="1" as="geometry" />
        </mxCell>
        <mxCell id="j-ZyikdbyAII7zTlh9Dx-146" value="" style="shape=waypoint;sketch=0;fillStyle=solid;size=6;pointerEvents=1;points=[];fillColor=none;resizable=0;rotatable=0;perimeter=centerPerimeter;snapToPoint=1;" parent="1" vertex="1">
          <mxGeometry x="186" y="247" width="20" height="20" as="geometry" />
        </mxCell>
        <mxCell id="j-ZyikdbyAII7zTlh9Dx-147" value="" style="endArrow=none;html=1;rounded=0;" parent="1" target="j-ZyikdbyAII7zTlh9Dx-149" edge="1">
          <mxGeometry width="50" height="50" relative="1" as="geometry">
            <mxPoint x="86" y="297" as="sourcePoint" />
            <mxPoint x="446" y="297" as="targetPoint" />
          </mxGeometry>
        </mxCell>
        <mxCell id="j-ZyikdbyAII7zTlh9Dx-148" style="edgeStyle=none;curved=1;rounded=0;orthogonalLoop=1;jettySize=auto;html=1;entryX=0.5;entryY=0;entryDx=0;entryDy=0;fontSize=12;startSize=8;endSize=8;endArrow=none;startFill=0;" parent="1" source="j-ZyikdbyAII7zTlh9Dx-149" target="j-ZyikdbyAII7zTlh9Dx-119" edge="1">
          <mxGeometry relative="1" as="geometry" />
        </mxCell>
        <mxCell id="j-ZyikdbyAII7zTlh9Dx-149" value="" style="shape=waypoint;sketch=0;fillStyle=solid;size=6;pointerEvents=1;points=[];fillColor=none;resizable=0;rotatable=0;perimeter=centerPerimeter;snapToPoint=1;" parent="1" vertex="1">
          <mxGeometry x="206" y="287" width="20" height="20" as="geometry" />
        </mxCell>
        <mxCell id="j-ZyikdbyAII7zTlh9Dx-150" value="" style="endArrow=none;html=1;rounded=0;" parent="1" target="j-ZyikdbyAII7zTlh9Dx-152" edge="1">
          <mxGeometry width="50" height="50" relative="1" as="geometry">
            <mxPoint x="86" y="97" as="sourcePoint" />
            <mxPoint x="446" y="97" as="targetPoint" />
          </mxGeometry>
        </mxCell>
        <mxCell id="j-ZyikdbyAII7zTlh9Dx-151" style="edgeStyle=none;curved=1;rounded=0;orthogonalLoop=1;jettySize=auto;html=1;entryX=0.5;entryY=0;entryDx=0;entryDy=0;fontSize=12;startSize=8;endSize=8;endArrow=none;startFill=0;" parent="1" source="j-ZyikdbyAII7zTlh9Dx-152" target="j-ZyikdbyAII7zTlh9Dx-121" edge="1">
          <mxGeometry relative="1" as="geometry" />
        </mxCell>
        <mxCell id="j-ZyikdbyAII7zTlh9Dx-152" value="" style="shape=waypoint;sketch=0;fillStyle=solid;size=6;pointerEvents=1;points=[];fillColor=none;resizable=0;rotatable=0;perimeter=centerPerimeter;snapToPoint=1;" parent="1" vertex="1">
          <mxGeometry x="246" y="87" width="20" height="20" as="geometry" />
        </mxCell>
        <mxCell id="j-ZyikdbyAII7zTlh9Dx-153" value="" style="endArrow=none;html=1;rounded=0;" parent="1" target="j-ZyikdbyAII7zTlh9Dx-155" edge="1">
          <mxGeometry width="50" height="50" relative="1" as="geometry">
            <mxPoint x="86" y="137" as="sourcePoint" />
            <mxPoint x="446" y="137" as="targetPoint" />
          </mxGeometry>
        </mxCell>
        <mxCell id="j-ZyikdbyAII7zTlh9Dx-154" style="edgeStyle=none;curved=1;rounded=0;orthogonalLoop=1;jettySize=auto;html=1;entryX=0.5;entryY=0;entryDx=0;entryDy=0;fontSize=12;startSize=8;endSize=8;endArrow=none;startFill=0;" parent="1" source="j-ZyikdbyAII7zTlh9Dx-155" target="j-ZyikdbyAII7zTlh9Dx-123" edge="1">
          <mxGeometry relative="1" as="geometry" />
        </mxCell>
        <mxCell id="j-ZyikdbyAII7zTlh9Dx-155" value="" style="shape=waypoint;sketch=0;fillStyle=solid;size=6;pointerEvents=1;points=[];fillColor=none;resizable=0;rotatable=0;perimeter=centerPerimeter;snapToPoint=1;" parent="1" vertex="1">
          <mxGeometry x="266" y="127" width="20" height="20" as="geometry" />
        </mxCell>
        <mxCell id="j-ZyikdbyAII7zTlh9Dx-156" value="" style="endArrow=none;html=1;rounded=0;" parent="1" source="j-ZyikdbyAII7zTlh9Dx-146" target="j-ZyikdbyAII7zTlh9Dx-158" edge="1">
          <mxGeometry width="50" height="50" relative="1" as="geometry">
            <mxPoint x="196" y="257" as="sourcePoint" />
            <mxPoint x="491" y="257" as="targetPoint" />
          </mxGeometry>
        </mxCell>
        <mxCell id="j-ZyikdbyAII7zTlh9Dx-157" style="edgeStyle=none;curved=1;rounded=0;orthogonalLoop=1;jettySize=auto;html=1;entryX=0.5;entryY=0;entryDx=0;entryDy=0;fontSize=12;startSize=8;endSize=8;endArrow=none;startFill=0;" parent="1" source="j-ZyikdbyAII7zTlh9Dx-158" target="j-ZyikdbyAII7zTlh9Dx-125" edge="1">
          <mxGeometry relative="1" as="geometry" />
        </mxCell>
        <mxCell id="j-ZyikdbyAII7zTlh9Dx-158" value="" style="shape=waypoint;sketch=0;fillStyle=solid;size=6;pointerEvents=1;points=[];fillColor=none;resizable=0;rotatable=0;perimeter=centerPerimeter;snapToPoint=1;" parent="1" vertex="1">
          <mxGeometry x="286" y="247" width="20" height="20" as="geometry" />
        </mxCell>
        <mxCell id="j-ZyikdbyAII7zTlh9Dx-159" value="" style="endArrow=none;html=1;rounded=0;" parent="1" source="j-ZyikdbyAII7zTlh9Dx-149" target="j-ZyikdbyAII7zTlh9Dx-161" edge="1">
          <mxGeometry width="50" height="50" relative="1" as="geometry">
            <mxPoint x="216" y="297" as="sourcePoint" />
            <mxPoint x="491" y="297" as="targetPoint" />
          </mxGeometry>
        </mxCell>
        <mxCell id="j-ZyikdbyAII7zTlh9Dx-160" style="edgeStyle=none;curved=1;rounded=0;orthogonalLoop=1;jettySize=auto;html=1;entryX=0.5;entryY=0;entryDx=0;entryDy=0;fontSize=12;startSize=8;endSize=8;endArrow=none;startFill=0;" parent="1" source="j-ZyikdbyAII7zTlh9Dx-161" target="j-ZyikdbyAII7zTlh9Dx-127" edge="1">
          <mxGeometry relative="1" as="geometry" />
        </mxCell>
        <mxCell id="j-ZyikdbyAII7zTlh9Dx-161" value="" style="shape=waypoint;sketch=0;fillStyle=solid;size=6;pointerEvents=1;points=[];fillColor=none;resizable=0;rotatable=0;perimeter=centerPerimeter;snapToPoint=1;" parent="1" vertex="1">
          <mxGeometry x="306" y="287" width="20" height="20" as="geometry" />
        </mxCell>
        <mxCell id="j-ZyikdbyAII7zTlh9Dx-162" value="" style="endArrow=none;html=1;rounded=0;" parent="1" target="j-ZyikdbyAII7zTlh9Dx-164" edge="1">
          <mxGeometry width="50" height="50" relative="1" as="geometry">
            <mxPoint x="86" y="57" as="sourcePoint" />
            <mxPoint x="446" y="57" as="targetPoint" />
          </mxGeometry>
        </mxCell>
        <mxCell id="j-ZyikdbyAII7zTlh9Dx-163" style="edgeStyle=none;curved=1;rounded=0;orthogonalLoop=1;jettySize=auto;html=1;entryX=0.5;entryY=0;entryDx=0;entryDy=0;fontSize=12;startSize=8;endSize=8;endArrow=none;startFill=0;" parent="1" source="j-ZyikdbyAII7zTlh9Dx-164" target="j-ZyikdbyAII7zTlh9Dx-135" edge="1">
          <mxGeometry relative="1" as="geometry" />
        </mxCell>
        <mxCell id="j-ZyikdbyAII7zTlh9Dx-164" value="" style="shape=waypoint;sketch=0;fillStyle=solid;size=6;pointerEvents=1;points=[];fillColor=none;resizable=0;rotatable=0;perimeter=centerPerimeter;snapToPoint=1;" parent="1" vertex="1">
          <mxGeometry x="346" y="47" width="20" height="20" as="geometry" />
        </mxCell>
        <mxCell id="j-ZyikdbyAII7zTlh9Dx-165" value="" style="endArrow=none;html=1;rounded=0;" parent="1" source="j-ZyikdbyAII7zTlh9Dx-155" target="j-ZyikdbyAII7zTlh9Dx-167" edge="1">
          <mxGeometry width="50" height="50" relative="1" as="geometry">
            <mxPoint x="276" y="137" as="sourcePoint" />
            <mxPoint x="491" y="137" as="targetPoint" />
          </mxGeometry>
        </mxCell>
        <mxCell id="j-ZyikdbyAII7zTlh9Dx-166" style="edgeStyle=none;curved=1;rounded=0;orthogonalLoop=1;jettySize=auto;html=1;entryX=0.5;entryY=0;entryDx=0;entryDy=0;fontSize=12;startSize=8;endSize=8;endArrow=none;startFill=0;" parent="1" source="j-ZyikdbyAII7zTlh9Dx-167" target="j-ZyikdbyAII7zTlh9Dx-129" edge="1">
          <mxGeometry relative="1" as="geometry" />
        </mxCell>
        <mxCell id="j-ZyikdbyAII7zTlh9Dx-167" value="" style="shape=waypoint;sketch=0;fillStyle=solid;size=6;pointerEvents=1;points=[];fillColor=none;resizable=0;rotatable=0;perimeter=centerPerimeter;snapToPoint=1;" parent="1" vertex="1">
          <mxGeometry x="366" y="127" width="20" height="20" as="geometry" />
        </mxCell>
        <mxCell id="j-ZyikdbyAII7zTlh9Dx-168" value="" style="endArrow=none;html=1;rounded=0;" parent="1" source="j-ZyikdbyAII7zTlh9Dx-143" target="j-ZyikdbyAII7zTlh9Dx-170" edge="1">
          <mxGeometry width="50" height="50" relative="1" as="geometry">
            <mxPoint x="176" y="217" as="sourcePoint" />
            <mxPoint x="491" y="217" as="targetPoint" />
          </mxGeometry>
        </mxCell>
        <mxCell id="j-ZyikdbyAII7zTlh9Dx-169" style="edgeStyle=none;curved=1;rounded=0;orthogonalLoop=1;jettySize=auto;html=1;entryX=0.5;entryY=0;entryDx=0;entryDy=0;fontSize=12;startSize=8;endSize=8;endArrow=none;startFill=0;" parent="1" source="j-ZyikdbyAII7zTlh9Dx-170" target="j-ZyikdbyAII7zTlh9Dx-131" edge="1">
          <mxGeometry relative="1" as="geometry" />
        </mxCell>
        <mxCell id="j-ZyikdbyAII7zTlh9Dx-170" value="" style="shape=waypoint;sketch=0;fillStyle=solid;size=6;pointerEvents=1;points=[];fillColor=none;resizable=0;rotatable=0;perimeter=centerPerimeter;snapToPoint=1;" parent="1" vertex="1">
          <mxGeometry x="386" y="207" width="20" height="20" as="geometry" />
        </mxCell>
        <mxCell id="j-ZyikdbyAII7zTlh9Dx-171" value="" style="endArrow=none;html=1;rounded=0;" parent="1" source="j-ZyikdbyAII7zTlh9Dx-161" target="j-ZyikdbyAII7zTlh9Dx-173" edge="1">
          <mxGeometry width="50" height="50" relative="1" as="geometry">
            <mxPoint x="316" y="297" as="sourcePoint" />
            <mxPoint x="491" y="297" as="targetPoint" />
          </mxGeometry>
        </mxCell>
        <mxCell id="j-ZyikdbyAII7zTlh9Dx-172" style="edgeStyle=none;curved=1;rounded=0;orthogonalLoop=1;jettySize=auto;html=1;entryX=0.5;entryY=0;entryDx=0;entryDy=0;fontSize=12;startSize=8;endSize=8;endArrow=none;startFill=0;" parent="1" source="j-ZyikdbyAII7zTlh9Dx-173" target="j-ZyikdbyAII7zTlh9Dx-133" edge="1">
          <mxGeometry relative="1" as="geometry" />
        </mxCell>
        <mxCell id="j-ZyikdbyAII7zTlh9Dx-173" value="" style="shape=waypoint;sketch=0;fillStyle=solid;size=6;pointerEvents=1;points=[];fillColor=none;resizable=0;rotatable=0;perimeter=centerPerimeter;snapToPoint=1;" parent="1" vertex="1">
          <mxGeometry x="406" y="287" width="20" height="20" as="geometry" />
        </mxCell>
        <mxCell id="j-ZyikdbyAII7zTlh9Dx-174" value="&lt;span class=&quot;mord&quot;&gt;â£&lt;/span&gt;&lt;span class=&quot;mord&quot;&gt;&lt;span class=&quot;mord mathnormal&quot;&gt;Ï&lt;/span&gt;&lt;span class=&quot;msupsub&quot;&gt;&lt;span class=&quot;vlist-t vlist-t2&quot;&gt;&lt;span class=&quot;vlist-r&quot;&gt;&lt;span class=&quot;vlist&quot;&gt;&lt;font style=&quot;font-size: 8px;&quot;&gt;&lt;span style=&quot;&quot; class=&quot;pstrut&quot;&gt;&lt;/span&gt;&lt;span style=&quot;&quot; class=&quot;sizing reset-size6 size3 mtight&quot;&gt;&lt;span style=&quot;&quot; class=&quot;mord mtight&quot;&gt;0&lt;/span&gt;&lt;/span&gt;&lt;/font&gt;&lt;/span&gt;&lt;span class=&quot;vlist-s&quot;&gt;â&lt;/span&gt;&lt;/span&gt;&lt;span class=&quot;vlist-r&quot;&gt;&lt;span class=&quot;vlist&quot;&gt;&lt;/span&gt;&lt;/span&gt;&lt;/span&gt;&lt;/span&gt;&lt;/span&gt;&lt;span class=&quot;mclose&quot;&gt;â©&lt;/span&gt;" style="text;html=1;align=center;verticalAlign=middle;resizable=0;points=[];autosize=1;strokeColor=none;fillColor=none;fontSize=16;" parent="1" vertex="1">
          <mxGeometry x="40" y="40" width="50" height="30" as="geometry" />
        </mxCell>
        <mxCell id="j-ZyikdbyAII7zTlh9Dx-175" value="&lt;span class=&quot;mord&quot;&gt;â£&lt;/span&gt;&lt;span class=&quot;mord&quot;&gt;&lt;span class=&quot;mord mathnormal&quot;&gt;Ï&lt;/span&gt;&lt;span class=&quot;msupsub&quot;&gt;&lt;span class=&quot;vlist-t vlist-t2&quot;&gt;&lt;span class=&quot;vlist-r&quot;&gt;&lt;span class=&quot;vlist&quot;&gt;&lt;font style=&quot;font-size: 8px;&quot;&gt;&lt;span style=&quot;&quot; class=&quot;pstrut&quot;&gt;&lt;/span&gt;&lt;span style=&quot;&quot; class=&quot;sizing reset-size6 size3 mtight&quot;&gt;&lt;span style=&quot;&quot; class=&quot;mord mtight&quot;&gt;1&lt;/span&gt;&lt;/span&gt;&lt;/font&gt;&lt;/span&gt;&lt;span class=&quot;vlist-s&quot;&gt;â&lt;/span&gt;&lt;/span&gt;&lt;span class=&quot;vlist-r&quot;&gt;&lt;span class=&quot;vlist&quot;&gt;&lt;/span&gt;&lt;/span&gt;&lt;/span&gt;&lt;/span&gt;&lt;/span&gt;&lt;span class=&quot;mclose&quot;&gt;â©&lt;/span&gt;" style="text;html=1;align=center;verticalAlign=middle;resizable=0;points=[];autosize=1;strokeColor=none;fillColor=none;fontSize=16;" parent="1" vertex="1">
          <mxGeometry x="40" y="80" width="50" height="30" as="geometry" />
        </mxCell>
        <mxCell id="j-ZyikdbyAII7zTlh9Dx-176" value="&lt;span class=&quot;mord&quot;&gt;â£&lt;/span&gt;&lt;span class=&quot;mord&quot;&gt;&lt;span class=&quot;mord mathnormal&quot;&gt;Ï&lt;/span&gt;&lt;span class=&quot;msupsub&quot;&gt;&lt;span class=&quot;vlist-t vlist-t2&quot;&gt;&lt;span class=&quot;vlist-r&quot;&gt;&lt;span class=&quot;vlist&quot;&gt;&lt;font style=&quot;font-size: 8px;&quot;&gt;&lt;span style=&quot;&quot; class=&quot;pstrut&quot;&gt;&lt;/span&gt;&lt;span style=&quot;&quot; class=&quot;sizing reset-size6 size3 mtight&quot;&gt;&lt;span style=&quot;&quot; class=&quot;mord mtight&quot;&gt;2&lt;/span&gt;&lt;/span&gt;&lt;/font&gt;&lt;/span&gt;&lt;span class=&quot;vlist-s&quot;&gt;â&lt;/span&gt;&lt;/span&gt;&lt;span class=&quot;vlist-r&quot;&gt;&lt;span class=&quot;vlist&quot;&gt;&lt;/span&gt;&lt;/span&gt;&lt;/span&gt;&lt;/span&gt;&lt;/span&gt;&lt;span class=&quot;mclose&quot;&gt;â©&lt;/span&gt;" style="text;html=1;align=center;verticalAlign=middle;resizable=0;points=[];autosize=1;strokeColor=none;fillColor=none;fontSize=16;" parent="1" vertex="1">
          <mxGeometry x="40" y="120" width="50" height="30" as="geometry" />
        </mxCell>
        <mxCell id="j-ZyikdbyAII7zTlh9Dx-177" value="&lt;span class=&quot;mord&quot;&gt;â£&lt;/span&gt;&lt;span class=&quot;mord&quot;&gt;&lt;span class=&quot;mord mathnormal&quot;&gt;Ï&lt;/span&gt;&lt;span class=&quot;msupsub&quot;&gt;&lt;span class=&quot;vlist-t vlist-t2&quot;&gt;&lt;span class=&quot;vlist-r&quot;&gt;&lt;span class=&quot;vlist&quot;&gt;&lt;font style=&quot;font-size: 8px;&quot;&gt;&lt;span style=&quot;&quot; class=&quot;pstrut&quot;&gt;&lt;/span&gt;&lt;span style=&quot;&quot; class=&quot;sizing reset-size6 size3 mtight&quot;&gt;&lt;span style=&quot;&quot; class=&quot;mord mtight&quot;&gt;3&lt;/span&gt;&lt;/span&gt;&lt;/font&gt;&lt;/span&gt;&lt;span class=&quot;vlist-s&quot;&gt;â&lt;/span&gt;&lt;/span&gt;&lt;span class=&quot;vlist-r&quot;&gt;&lt;span class=&quot;vlist&quot;&gt;&lt;/span&gt;&lt;/span&gt;&lt;/span&gt;&lt;/span&gt;&lt;/span&gt;&lt;span class=&quot;mclose&quot;&gt;â©&lt;/span&gt;" style="text;html=1;align=center;verticalAlign=middle;resizable=0;points=[];autosize=1;strokeColor=none;fillColor=none;fontSize=16;" parent="1" vertex="1">
          <mxGeometry x="40" y="160" width="50" height="30" as="geometry" />
        </mxCell>
        <mxCell id="j-ZyikdbyAII7zTlh9Dx-178" value="&lt;span class=&quot;mord&quot;&gt;â£&lt;/span&gt;&lt;span class=&quot;mord&quot;&gt;&lt;span class=&quot;mord mathnormal&quot;&gt;Ï&lt;span style=&quot;font-size: 8px;&quot;&gt;4&lt;/span&gt;&lt;/span&gt;&lt;span class=&quot;msupsub&quot;&gt;&lt;span class=&quot;vlist-t vlist-t2&quot;&gt;&lt;span class=&quot;vlist-r&quot;&gt;&lt;span class=&quot;vlist-s&quot;&gt;â&lt;/span&gt;&lt;/span&gt;&lt;span class=&quot;vlist-r&quot;&gt;&lt;span class=&quot;vlist&quot;&gt;&lt;/span&gt;&lt;/span&gt;&lt;/span&gt;&lt;/span&gt;&lt;/span&gt;&lt;span class=&quot;mclose&quot;&gt;â©&lt;/span&gt;" style="text;html=1;align=center;verticalAlign=middle;resizable=0;points=[];autosize=1;strokeColor=none;fillColor=none;fontSize=16;" parent="1" vertex="1">
          <mxGeometry x="40" y="200" width="50" height="30" as="geometry" />
        </mxCell>
        <mxCell id="j-ZyikdbyAII7zTlh9Dx-179" value="&lt;span class=&quot;mord&quot;&gt;â£&lt;/span&gt;&lt;span class=&quot;mord&quot;&gt;&lt;span class=&quot;mord mathnormal&quot;&gt;Ï&lt;span style=&quot;font-size: 8px;&quot;&gt;5&lt;/span&gt;&lt;/span&gt;&lt;span class=&quot;msupsub&quot;&gt;&lt;span class=&quot;vlist-t vlist-t2&quot;&gt;&lt;span class=&quot;vlist-r&quot;&gt;&lt;span class=&quot;vlist-s&quot;&gt;â&lt;/span&gt;&lt;/span&gt;&lt;span class=&quot;vlist-r&quot;&gt;&lt;span class=&quot;vlist&quot;&gt;&lt;/span&gt;&lt;/span&gt;&lt;/span&gt;&lt;/span&gt;&lt;/span&gt;&lt;span class=&quot;mclose&quot;&gt;â©&lt;/span&gt;" style="text;html=1;align=center;verticalAlign=middle;resizable=0;points=[];autosize=1;strokeColor=none;fillColor=none;fontSize=16;" parent="1" vertex="1">
          <mxGeometry x="40" y="240" width="50" height="30" as="geometry" />
        </mxCell>
        <mxCell id="j-ZyikdbyAII7zTlh9Dx-180" value="&lt;span class=&quot;mord&quot;&gt;â£&lt;/span&gt;&lt;span class=&quot;mord&quot;&gt;&lt;span class=&quot;mord mathnormal&quot;&gt;Ï&lt;/span&gt;&lt;span class=&quot;msupsub&quot;&gt;&lt;span class=&quot;vlist-t vlist-t2&quot;&gt;&lt;span class=&quot;vlist-r&quot;&gt;&lt;span class=&quot;vlist&quot;&gt;&lt;font style=&quot;font-size: 8px;&quot;&gt;&lt;span style=&quot;&quot; class=&quot;pstrut&quot;&gt;&lt;/span&gt;&lt;span style=&quot;&quot; class=&quot;sizing reset-size6 size3 mtight&quot;&gt;&lt;span style=&quot;&quot; class=&quot;mord mtight&quot;&gt;6&lt;/span&gt;&lt;/span&gt;&lt;/font&gt;&lt;/span&gt;&lt;span class=&quot;vlist-s&quot;&gt;â&lt;/span&gt;&lt;/span&gt;&lt;span class=&quot;vlist-r&quot;&gt;&lt;span class=&quot;vlist&quot;&gt;&lt;/span&gt;&lt;/span&gt;&lt;/span&gt;&lt;/span&gt;&lt;/span&gt;&lt;span class=&quot;mclose&quot;&gt;â©&lt;/span&gt;" style="text;html=1;align=center;verticalAlign=middle;resizable=0;points=[];autosize=1;strokeColor=none;fillColor=none;fontSize=16;" parent="1" vertex="1">
          <mxGeometry x="40" y="280" width="50" height="30" as="geometry" />
        </mxCell>
        <mxCell id="j-ZyikdbyAII7zTlh9Dx-181" value="" style="endArrow=none;html=1;rounded=0;" parent="1" source="j-ZyikdbyAII7zTlh9Dx-164" target="j-ZyikdbyAII7zTlh9Dx-182" edge="1">
          <mxGeometry width="50" height="50" relative="1" as="geometry">
            <mxPoint x="356" y="57" as="sourcePoint" />
            <mxPoint x="506" y="57" as="targetPoint" />
          </mxGeometry>
        </mxCell>
        <mxCell id="j-ZyikdbyAII7zTlh9Dx-182" value="E8" style="rounded=0;whiteSpace=wrap;html=1;fillColor=#f8cecc;strokeColor=#b85450;" parent="1" vertex="1">
          <mxGeometry x="456" y="47" width="30" height="20" as="geometry" />
        </mxCell>
        <mxCell id="j-ZyikdbyAII7zTlh9Dx-183" value="" style="endArrow=none;html=1;rounded=0;" parent="1" source="j-ZyikdbyAII7zTlh9Dx-152" target="j-ZyikdbyAII7zTlh9Dx-184" edge="1">
          <mxGeometry width="50" height="50" relative="1" as="geometry">
            <mxPoint x="256" y="97" as="sourcePoint" />
            <mxPoint x="506" y="97" as="targetPoint" />
          </mxGeometry>
        </mxCell>
        <mxCell id="j-ZyikdbyAII7zTlh9Dx-184" value="E9" style="rounded=0;whiteSpace=wrap;html=1;fillColor=#f8cecc;strokeColor=#b85450;" parent="1" vertex="1">
          <mxGeometry x="456" y="87" width="30" height="20" as="geometry" />
        </mxCell>
        <mxCell id="j-ZyikdbyAII7zTlh9Dx-185" value="E10" style="rounded=0;whiteSpace=wrap;html=1;fillColor=#f8cecc;strokeColor=#b85450;" parent="1" vertex="1">
          <mxGeometry x="456" y="127" width="30" height="20" as="geometry" />
        </mxCell>
        <mxCell id="j-ZyikdbyAII7zTlh9Dx-186" value="" style="endArrow=none;html=1;rounded=0;" parent="1" source="j-ZyikdbyAII7zTlh9Dx-140" target="j-ZyikdbyAII7zTlh9Dx-187" edge="1">
          <mxGeometry width="50" height="50" relative="1" as="geometry">
            <mxPoint x="156" y="177" as="sourcePoint" />
            <mxPoint x="506" y="177" as="targetPoint" />
          </mxGeometry>
        </mxCell>
        <mxCell id="j-ZyikdbyAII7zTlh9Dx-187" value="E11" style="rounded=0;whiteSpace=wrap;html=1;fillColor=#f8cecc;strokeColor=#b85450;" parent="1" vertex="1">
          <mxGeometry x="456" y="167" width="30" height="20" as="geometry" />
        </mxCell>
        <mxCell id="j-ZyikdbyAII7zTlh9Dx-188" value="" style="endArrow=none;html=1;rounded=0;" parent="1" source="j-ZyikdbyAII7zTlh9Dx-170" target="j-ZyikdbyAII7zTlh9Dx-189" edge="1">
          <mxGeometry width="50" height="50" relative="1" as="geometry">
            <mxPoint x="396" y="217" as="sourcePoint" />
            <mxPoint x="506" y="217" as="targetPoint" />
          </mxGeometry>
        </mxCell>
        <mxCell id="j-ZyikdbyAII7zTlh9Dx-189" value="E12" style="rounded=0;whiteSpace=wrap;html=1;fillColor=#f8cecc;strokeColor=#b85450;" parent="1" vertex="1">
          <mxGeometry x="456" y="207" width="30" height="20" as="geometry" />
        </mxCell>
        <mxCell id="j-ZyikdbyAII7zTlh9Dx-190" value="" style="endArrow=none;html=1;rounded=0;" parent="1" source="j-ZyikdbyAII7zTlh9Dx-158" target="j-ZyikdbyAII7zTlh9Dx-191" edge="1">
          <mxGeometry width="50" height="50" relative="1" as="geometry">
            <mxPoint x="296" y="257" as="sourcePoint" />
            <mxPoint x="506" y="257" as="targetPoint" />
          </mxGeometry>
        </mxCell>
        <mxCell id="j-ZyikdbyAII7zTlh9Dx-191" value="E13" style="rounded=0;whiteSpace=wrap;html=1;fillColor=#f8cecc;strokeColor=#b85450;" parent="1" vertex="1">
          <mxGeometry x="456" y="247" width="30" height="20" as="geometry" />
        </mxCell>
        <mxCell id="j-ZyikdbyAII7zTlh9Dx-192" value="" style="endArrow=none;html=1;rounded=0;" parent="1" source="j-ZyikdbyAII7zTlh9Dx-173" target="j-ZyikdbyAII7zTlh9Dx-193" edge="1">
          <mxGeometry width="50" height="50" relative="1" as="geometry">
            <mxPoint x="416" y="297" as="sourcePoint" />
            <mxPoint x="506" y="297" as="targetPoint" />
          </mxGeometry>
        </mxCell>
        <mxCell id="j-ZyikdbyAII7zTlh9Dx-193" value="E14" style="rounded=0;whiteSpace=wrap;html=1;fillColor=#f8cecc;strokeColor=#b85450;" parent="1" vertex="1">
          <mxGeometry x="456" y="287" width="30" height="20" as="geometry" />
        </mxCell>
        <mxCell id="j-ZyikdbyAII7zTlh9Dx-194" value="E1" style="rounded=0;whiteSpace=wrap;html=1;fillColor=#f8cecc;strokeColor=#b85450;" parent="1" vertex="1">
          <mxGeometry x="106" y="47" width="30" height="20" as="geometry" />
        </mxCell>
        <mxCell id="j-ZyikdbyAII7zTlh9Dx-195" value="E2" style="rounded=0;whiteSpace=wrap;html=1;fillColor=#f8cecc;strokeColor=#b85450;" parent="1" vertex="1">
          <mxGeometry x="106" y="87" width="30" height="20" as="geometry" />
        </mxCell>
        <mxCell id="j-ZyikdbyAII7zTlh9Dx-196" value="E3" style="rounded=0;whiteSpace=wrap;html=1;fillColor=#f8cecc;strokeColor=#b85450;" parent="1" vertex="1">
          <mxGeometry x="106" y="127" width="30" height="20" as="geometry" />
        </mxCell>
        <mxCell id="j-ZyikdbyAII7zTlh9Dx-197" value="E4" style="rounded=0;whiteSpace=wrap;html=1;fillColor=#f8cecc;strokeColor=#b85450;" parent="1" vertex="1">
          <mxGeometry x="106" y="167" width="30" height="20" as="geometry" />
        </mxCell>
        <mxCell id="j-ZyikdbyAII7zTlh9Dx-198" value="E5" style="rounded=0;whiteSpace=wrap;html=1;fillColor=#f8cecc;strokeColor=#b85450;" parent="1" vertex="1">
          <mxGeometry x="106" y="207" width="30" height="20" as="geometry" />
        </mxCell>
        <mxCell id="j-ZyikdbyAII7zTlh9Dx-199" value="E6" style="rounded=0;whiteSpace=wrap;html=1;fillColor=#f8cecc;strokeColor=#b85450;" parent="1" vertex="1">
          <mxGeometry x="106" y="247" width="30" height="20" as="geometry" />
        </mxCell>
        <mxCell id="j-ZyikdbyAII7zTlh9Dx-200" value="E7" style="rounded=0;whiteSpace=wrap;html=1;fillColor=#f8cecc;strokeColor=#b85450;" parent="1" vertex="1">
          <mxGeometry x="106" y="287" width="30" height="20" as="geometry" />
        </mxCell>
        <mxCell id="j-ZyikdbyAII7zTlh9Dx-201" value="" style="endArrow=none;html=1;rounded=0;fillColor=#f8cecc;strokeColor=#b85450;" parent="1" source="j-ZyikdbyAII7zTlh9Dx-119" target="j-ZyikdbyAII7zTlh9Dx-202" edge="1">
          <mxGeometry width="50" height="50" relative="1" as="geometry">
            <mxPoint x="221" y="337" as="sourcePoint" />
            <mxPoint x="506" y="337" as="targetPoint" />
          </mxGeometry>
        </mxCell>
        <mxCell id="j-ZyikdbyAII7zTlh9Dx-202" value="E15" style="rounded=0;whiteSpace=wrap;html=1;fillColor=#f8cecc;strokeColor=#b85450;" parent="1" vertex="1">
          <mxGeometry x="456" y="327" width="30" height="20" as="geometry" />
        </mxCell>
        <mxCell id="j-ZyikdbyAII7zTlh9Dx-203" value="" style="endArrow=none;html=1;rounded=0;fillColor=#f8cecc;strokeColor=#b85450;" parent="1" source="j-ZyikdbyAII7zTlh9Dx-127" target="j-ZyikdbyAII7zTlh9Dx-204" edge="1">
          <mxGeometry width="50" height="50" relative="1" as="geometry">
            <mxPoint x="321" y="377" as="sourcePoint" />
            <mxPoint x="506" y="377" as="targetPoint" />
          </mxGeometry>
        </mxCell>
        <mxCell id="j-ZyikdbyAII7zTlh9Dx-204" value="E16" style="rounded=0;whiteSpace=wrap;html=1;fillColor=#f8cecc;strokeColor=#b85450;" parent="1" vertex="1">
          <mxGeometry x="456" y="367" width="30" height="20" as="geometry" />
        </mxCell>
        <mxCell id="j-ZyikdbyAII7zTlh9Dx-205" value="" style="endArrow=none;html=1;rounded=0;fillColor=#f8cecc;strokeColor=#b85450;" parent="1" source="j-ZyikdbyAII7zTlh9Dx-133" target="j-ZyikdbyAII7zTlh9Dx-206" edge="1">
          <mxGeometry width="50" height="50" relative="1" as="geometry">
            <mxPoint x="421" y="417" as="sourcePoint" />
            <mxPoint x="506" y="417" as="targetPoint" />
          </mxGeometry>
        </mxCell>
        <mxCell id="j-ZyikdbyAII7zTlh9Dx-206" value="E17" style="rounded=0;whiteSpace=wrap;html=1;fillColor=#f8cecc;strokeColor=#b85450;" parent="1" vertex="1">
          <mxGeometry x="456" y="407" width="30" height="20" as="geometry" />
        </mxCell>
        <mxCell id="j-ZyikdbyAII7zTlh9Dx-207" value="&lt;span class=&quot;mord&quot;&gt;â£&lt;/span&gt;&lt;span class=&quot;mord&quot;&gt;&lt;span class=&quot;mord mathnormal&quot;&gt;d&lt;/span&gt;&lt;span class=&quot;msupsub&quot;&gt;&lt;span class=&quot;vlist-t vlist-t2&quot;&gt;&lt;span class=&quot;vlist-r&quot;&gt;&lt;span class=&quot;vlist&quot;&gt;&lt;font style=&quot;font-size: 8px;&quot;&gt;&lt;span style=&quot;&quot; class=&quot;pstrut&quot;&gt;&lt;/span&gt;&lt;span style=&quot;&quot; class=&quot;sizing reset-size6 size3 mtight&quot;&gt;&lt;span style=&quot;&quot; class=&quot;mord mtight&quot;&gt;1&lt;/span&gt;&lt;/span&gt;&lt;/font&gt;&lt;/span&gt;&lt;span class=&quot;vlist-s&quot;&gt;â&lt;/span&gt;&lt;/span&gt;&lt;span class=&quot;vlist-r&quot;&gt;&lt;span class=&quot;vlist&quot;&gt;&lt;/span&gt;&lt;/span&gt;&lt;/span&gt;&lt;/span&gt;&lt;/span&gt;&lt;span class=&quot;mclose&quot;&gt;â©&lt;/span&gt;" style="text;html=1;align=center;verticalAlign=middle;resizable=0;points=[];autosize=1;strokeColor=none;fillColor=none;fontSize=16;" parent="1" vertex="1">
          <mxGeometry x="40" y="322" width="50" height="30" as="geometry" />
        </mxCell>
        <mxCell id="j-ZyikdbyAII7zTlh9Dx-208" value="&lt;span class=&quot;mord&quot;&gt;â£&lt;/span&gt;&lt;span class=&quot;mord&quot;&gt;&lt;span class=&quot;mord mathnormal&quot;&gt;d&lt;span style=&quot;font-size: 8px;&quot;&gt;2&lt;/span&gt;&lt;/span&gt;&lt;/span&gt;&lt;span class=&quot;mclose&quot;&gt;â©&lt;/span&gt;" style="text;html=1;align=center;verticalAlign=middle;resizable=0;points=[];autosize=1;strokeColor=none;fillColor=none;fontSize=16;" parent="1" vertex="1">
          <mxGeometry x="40" y="362" width="50" height="30" as="geometry" />
        </mxCell>
        <mxCell id="j-ZyikdbyAII7zTlh9Dx-209" value="&lt;span class=&quot;mord&quot;&gt;â£&lt;/span&gt;&lt;span class=&quot;mord&quot;&gt;&lt;span class=&quot;mord mathnormal&quot;&gt;d&lt;/span&gt;&lt;span class=&quot;msupsub&quot;&gt;&lt;span class=&quot;vlist-t vlist-t2&quot;&gt;&lt;span class=&quot;vlist-r&quot;&gt;&lt;span class=&quot;vlist&quot;&gt;&lt;font style=&quot;font-size: 8px;&quot;&gt;&lt;span style=&quot;&quot; class=&quot;pstrut&quot;&gt;&lt;/span&gt;&lt;span style=&quot;&quot; class=&quot;sizing reset-size6 size3 mtight&quot;&gt;&lt;span style=&quot;&quot; class=&quot;mord mtight&quot;&gt;3&lt;/span&gt;&lt;/span&gt;&lt;/font&gt;&lt;/span&gt;&lt;span class=&quot;vlist-s&quot;&gt;â&lt;/span&gt;&lt;/span&gt;&lt;span class=&quot;vlist-r&quot;&gt;&lt;span class=&quot;vlist&quot;&gt;&lt;/span&gt;&lt;/span&gt;&lt;/span&gt;&lt;/span&gt;&lt;/span&gt;&lt;span class=&quot;mclose&quot;&gt;â©&lt;/span&gt;" style="text;html=1;align=center;verticalAlign=middle;resizable=0;points=[];autosize=1;strokeColor=none;fillColor=none;fontSize=16;" parent="1" vertex="1">
          <mxGeometry x="40" y="402" width="50" height="30" as="geometry" />
        </mxCell>
      </root>
    </mxGraphModel>
  </diagram>
</mxfile>
